<?xml version="1.0" encoding="UTF-8"?>
<!DOCTYPE svg PUBLIC "-//W3C//DTD SVG 1.1//EN" "http://www.w3.org/Graphics/SVG/1.1/DTD/svg11.dtd">
<svg xmlns="http://www.w3.org/2000/svg" version="1.1" width="512px" height="512px" style="shape-rendering:geometricPrecision; text-rendering:geometricPrecision; image-rendering:optimizeQuality; fill-rule:evenodd; clip-rule:evenodd" xmlns:xlink="http://www.w3.org/1999/xlink">
<g><path style="opacity:0.997" fill="#4a4949" d="M 232.5,-0.5 C 240.167,-0.5 247.833,-0.5 255.5,-0.5C 255.5,39.5 255.5,79.5 255.5,119.5C 194.667,122.484 152.167,151.817 128,207.5C 116.288,241.015 116.788,274.348 129.5,307.5C 92.6188,323.107 55.6188,338.44 18.5,353.5C 8.53918,329.322 2.20584,304.322 -0.5,278.5C -0.5,263.167 -0.5,247.833 -0.5,232.5C 10.3875,142.857 54.7208,75.3573 132.5,30C 163.971,13.3053 197.304,3.1386 232.5,-0.5 Z"/></g>
<g><path style="opacity:0.996" fill="#828181" d="M 255.5,-0.5 C 263.167,-0.5 270.833,-0.5 278.5,-0.5C 304.322,2.20584 329.322,8.53918 353.5,18.5C 338.167,55.5 322.833,92.5 307.5,129.5C 290.79,122.99 273.456,119.656 255.5,119.5C 255.5,79.5 255.5,39.5 255.5,-0.5 Z"/></g>
<g><path style="opacity:0.997" fill="#4a4949" d="M 353.5,18.5 C 409.016,41.8444 451.516,79.8444 481,132.5C 485.393,140.616 489.226,148.949 492.5,157.5C 455.381,172.56 418.381,187.893 381.5,203.5C 366.446,169.113 341.78,144.446 307.5,129.5C 322.833,92.5 338.167,55.5 353.5,18.5 Z"/></g>
<g><path style="opacity:1" fill="#e92820" d="M 255.5,119.5 C 255.5,129.5 255.5,139.5 255.5,149.5C 210.354,151.651 177.854,172.984 158,213.5C 143.131,253.146 148.464,289.812 174,323.5C 195.539,348.186 222.706,360.852 255.5,361.5C 255.5,371.5 255.5,381.5 255.5,391.5C 237.486,391.63 220.152,388.297 203.5,381.5C 169.113,366.446 144.446,341.78 129.5,307.5C 116.788,274.348 116.288,241.015 128,207.5C 152.167,151.817 194.667,122.484 255.5,119.5 Z"/></g>
<g><path style="opacity:1" fill="#d30b02" d="M 255.5,119.5 C 273.456,119.656 290.79,122.99 307.5,129.5C 341.78,144.446 366.446,169.113 381.5,203.5C 401.871,261.485 390.538,312.318 347.5,356C 321.326,379.119 290.66,390.953 255.5,391.5C 255.5,381.5 255.5,371.5 255.5,361.5C 302.233,359.398 335.066,337.065 354,294.5C 370.069,247.61 359.903,207.444 323.5,174C 303.676,158.223 281.009,150.056 255.5,149.5C 255.5,139.5 255.5,129.5 255.5,119.5 Z"/></g>
<g><path style="opacity:1" fill="#fe433d" d="M 255.5,149.5 C 255.5,174.833 255.5,200.167 255.5,225.5C 253.901,225.232 252.568,225.566 251.5,226.5C 229.62,232.585 222.12,246.585 229,268.5C 234.149,277.156 241.649,282.49 251.5,284.5C 252.568,285.434 253.901,285.768 255.5,285.5C 255.5,310.833 255.5,336.167 255.5,361.5C 222.706,360.852 195.539,348.186 174,323.5C 148.464,289.812 143.131,253.146 158,213.5C 177.854,172.984 210.354,151.651 255.5,149.5 Z"/></g>
<g><path style="opacity:0.999" fill="#e9271f" d="M 255.5,149.5 C 281.009,150.056 303.676,158.223 323.5,174C 359.903,207.444 370.069,247.61 354,294.5C 335.066,337.065 302.233,359.398 255.5,361.5C 255.5,336.167 255.5,310.833 255.5,285.5C 253.901,285.768 252.568,285.434 251.5,284.5C 271.582,285.081 282.582,275.414 284.5,255.5C 282.582,235.586 271.582,225.919 251.5,226.5C 252.568,225.566 253.901,225.232 255.5,225.5C 255.5,200.167 255.5,174.833 255.5,149.5 Z"/></g>
<g><path style="opacity:0.994" fill="#000000" d="M 492.5,157.5 C 502.461,181.678 508.794,206.678 511.5,232.5C 511.5,247.833 511.5,263.167 511.5,278.5C 500.612,368.144 456.279,435.644 378.5,481C 347.029,497.695 313.696,507.861 278.5,511.5C 270.833,511.5 263.167,511.5 255.5,511.5C 255.5,471.5 255.5,431.5 255.5,391.5C 290.66,390.953 321.326,379.119 347.5,356C 390.538,312.318 401.871,261.485 381.5,203.5C 418.381,187.893 455.381,172.56 492.5,157.5 Z"/></g>
<g><path style="opacity:0.996" fill="#636262" d="M 129.5,307.5 C 144.446,341.78 169.113,366.446 203.5,381.5C 187.893,418.381 172.56,455.381 157.5,492.5C 101.984,469.156 59.484,431.156 30,378.5C 25.6074,370.384 21.7741,362.051 18.5,353.5C 55.6188,338.44 92.6188,323.107 129.5,307.5 Z"/></g>
<g><path style="opacity:0.997" fill="#4a4a4a" d="M 203.5,381.5 C 220.152,388.297 237.486,391.63 255.5,391.5C 255.5,431.5 255.5,471.5 255.5,511.5C 247.833,511.5 240.167,511.5 232.5,511.5C 206.677,508.794 181.677,502.461 157.5,492.5C 172.56,455.381 187.893,418.381 203.5,381.5 Z"/></g>
</svg>
